<svg width="196" height="45" viewBox="0 0 196 45" fill="none" xmlns="http://www.w3.org/2000/svg">
<path d="M30.3262 6.74908V32.2335H22.3353V22.2989H14.7404V32.2335H6.74951V6.74908H14.7404V15.9278H22.3353V6.74908H30.3262Z" fill="#C31D25"/>
<path d="M46.7357 32.2335L41.9484 23.0908H41.9124V32.2335H33.9215V6.74908H45.7999C47.8636 6.74908 49.6273 7.12103 51.0911 7.86493C52.5549 8.58483 53.6468 9.58069 54.3667 10.8525C55.1106 12.1003 55.4825 13.5161 55.4825 15.0999C55.4825 16.8037 55.0026 18.3155 54.0427 19.6353C53.1069 20.9551 51.751 21.903 49.9753 22.4789L55.5185 32.2335H46.7357ZM41.9124 17.7636H45.08C45.8479 17.7636 46.4238 17.5956 46.8077 17.2596C47.1917 16.8997 47.3837 16.3478 47.3837 15.6039C47.3837 14.9319 47.1797 14.404 46.7717 14.0201C46.3878 13.6361 45.8239 13.4442 45.08 13.4442H41.9124V17.7636Z" fill="#C31D25"/>
<path fill-rule="evenodd" clip-rule="evenodd" d="M33.9211 6.74906V32.2335H41.912V23.0908H41.948L46.7353 32.2335H55.5181L49.9748 22.4789C50.3413 22.36 50.6899 22.2253 51.0206 22.0748C51.091 22.0427 51.1606 22.01 51.2294 21.9765C51.5249 21.8326 51.8055 21.6755 52.0711 21.5051C52.4515 21.2611 52.8012 20.9899 53.1202 20.6915C53.463 20.3708 53.7704 20.0187 54.0423 19.6353C55.0021 18.3155 55.4821 16.8037 55.4821 15.0999C55.4821 13.5161 55.1101 12.1003 54.3662 10.8525C53.6463 9.58067 52.5545 8.58481 51.0907 7.86491C49.7181 7.16736 48.0818 6.79686 46.1817 6.7534C46.0554 6.75051 45.928 6.74906 45.7994 6.74906H33.9211ZM45.7122 13.4981C45.5182 13.4621 45.3073 13.4441 45.0795 13.4441H41.912V17.7635H45.0795C45.717 17.7635 46.2221 17.6478 46.595 17.4163C46.6713 17.3689 46.7421 17.3167 46.8073 17.2596C47.0718 17.0116 47.2452 16.6725 47.3275 16.2423C47.3646 16.0481 47.3832 15.8352 47.3832 15.6038C47.3832 14.9319 47.1792 14.404 46.7713 14.0201C46.5049 13.7537 46.1519 13.5797 45.7122 13.4981ZM54.1085 1.82806C56.6042 3.06378 58.7451 4.92105 60.2016 7.46112C61.5974 9.83013 62.2311 12.4369 62.2311 15.0999C62.2311 18.1501 61.3454 21.0538 59.5238 23.5728C59.309 23.8737 59.0848 24.1626 58.8517 24.4396L67.116 38.9826H0V0H45.7994C48.6449 0 51.4962 0.50995 54.1085 1.82806ZM30.3258 6.74906V32.2335H22.3349V22.2989H14.74V32.2335H6.74906V6.74906H14.74V15.9278H22.3349V6.74906H30.3258Z" fill="white"/>
<path d="M68.1969 23.9951L68.1976 23.9963C68.5303 24.5048 68.6727 25.1144 68.5996 25.7177C68.5325 26.2715 68.2877 26.7872 67.9041 27.1885L67.8854 27.2135L67.7932 27.2992L67.7171 27.3699L67.4642 27.6116C66.0277 29.0052 64.6347 30.443 63.2871 31.9228C60.7362 34.728 57.7603 38.3436 55.779 41.8052L55.779 41.8053C54.7566 43.5912 52.2438 44.0016 50.737 42.4345L68.1969 23.9951ZM68.1969 23.9951L67.0373 22.2264C66.672 21.6688 66.105 21.2743 65.4552 21.1258C64.8054 20.9773 64.1234 21.0862 63.5523 21.4297C60.6875 23.1525 57.358 25.3744 51.7523 30.8025L48.8401 28.619C48.8399 28.6189 48.8398 28.6188 48.8396 28.6187C48.8395 28.6186 48.8395 28.6186 48.8394 28.6185C48.3615 28.26 47.7738 28.0785 47.1769 28.1053C46.5797 28.1321 46.0103 28.3657 45.5664 28.766L45.5661 28.7662L43.2698 30.8376C43.2698 30.8376 43.2697 30.8376 43.2697 30.8376C43.2697 30.8377 43.2696 30.8377 43.2695 30.8378C43.013 31.0692 42.8056 31.3497 42.6596 31.6628C42.5136 31.9759 42.4321 32.3153 42.4198 32.6606C42.4075 33.0059 42.4648 33.3502 42.5882 33.6729C42.7117 33.9956 42.8987 34.2903 43.1383 34.5393L43.1385 34.5395L50.7362 42.4336L68.1969 23.9951Z" fill="#C31D25" stroke="white" stroke-width="2.81211"/>
<path d="M89.7002 4.31176V17H86.1727V11.9067H81.8713V17H78.3438V4.31176H81.8713V9.0811H86.1727V4.31176H89.7002ZM98.144 17L95.6244 12.3206H95.2464V17H91.7189V4.31176H97.2801C98.3 4.31176 99.1639 4.49174 99.8718 4.85169C100.58 5.19964 101.114 5.68557 101.474 6.30948C101.833 6.9214 102.013 7.6113 102.013 8.3792C102.013 9.24308 101.773 10.005 101.294 10.6649C100.826 11.3128 100.136 11.7747 99.2239 12.0507L102.085 17H98.144ZM95.2464 9.90898H96.9922C97.4721 9.90898 97.832 9.795 98.072 9.56703C98.312 9.33906 98.432 9.00911 98.432 8.57717C98.432 8.16923 98.306 7.85127 98.054 7.6233C97.814 7.38333 97.4601 7.26335 96.9922 7.26335H95.2464V9.90898ZM110.518 4.31176V11.6727C110.518 12.3566 110.674 12.8846 110.986 13.2565C111.31 13.6285 111.796 13.8144 112.444 13.8144C113.092 13.8144 113.578 13.6285 113.902 13.2565C114.237 12.8726 114.405 12.3446 114.405 11.6727V4.31176H117.933V11.6727C117.933 12.8366 117.687 13.8324 117.195 14.6603C116.703 15.4762 116.031 16.0941 115.179 16.5141C114.339 16.922 113.404 17.126 112.372 17.126C111.34 17.126 110.416 16.922 109.6 16.5141C108.796 16.0941 108.16 15.4762 107.692 14.6603C107.236 13.8444 107.008 12.8486 107.008 11.6727V4.31176H110.518ZM126.48 6.81341C127.644 6.81341 128.568 7.20336 129.252 7.98325C129.936 8.75114 130.278 9.795 130.278 11.1148V17H126.75V11.5828C126.75 11.0068 126.6 10.5569 126.3 10.2329C126 9.89699 125.598 9.72901 125.094 9.72901C124.566 9.72901 124.153 9.89699 123.853 10.2329C123.553 10.5569 123.403 11.0068 123.403 11.5828V17H119.875V6.9034H123.403V8.3432C123.715 7.88726 124.135 7.52131 124.662 7.24535C125.19 6.95739 125.796 6.81341 126.48 6.81341ZM133.995 5.96753C133.371 5.96753 132.867 5.79955 132.483 5.4636C132.111 5.11565 131.925 4.68371 131.925 4.16778C131.925 3.63985 132.111 3.20192 132.483 2.85396C132.867 2.50601 133.371 2.33204 133.995 2.33204C134.607 2.33204 135.099 2.50601 135.471 2.85396C135.855 3.20192 136.047 3.63985 136.047 4.16778C136.047 4.68371 135.855 5.11565 135.471 5.4636C135.099 5.79955 134.607 5.96753 133.995 5.96753ZM135.741 6.9034V17H132.213V6.9034H135.741ZM143.203 9.83699H141.619V17H138.074V9.83699H136.976V6.9034H138.074V6.81341C138.074 5.51759 138.452 4.52773 139.207 3.84383C139.975 3.14792 141.073 2.79997 142.501 2.79997C142.789 2.79997 143.011 2.80597 143.167 2.81797V5.82355C143.071 5.81155 142.939 5.80555 142.771 5.80555C142.387 5.80555 142.105 5.89554 141.925 6.07552C141.745 6.24349 141.643 6.51945 141.619 6.9034H143.203V9.83699ZM146.245 5.96753C145.621 5.96753 145.117 5.79955 144.733 5.4636C144.362 5.11565 144.176 4.68371 144.176 4.16778C144.176 3.63985 144.362 3.20192 144.733 2.85396C145.117 2.50601 145.621 2.33204 146.245 2.33204C146.857 2.33204 147.349 2.50601 147.721 2.85396C148.105 3.20192 148.297 3.63985 148.297 4.16778C148.297 4.68371 148.105 5.11565 147.721 5.4636C147.349 5.79955 146.857 5.96753 146.245 5.96753ZM147.991 6.9034V17H144.464V6.9034H147.991ZM159.647 11.8347C159.647 12.1107 159.629 12.3866 159.593 12.6626H152.915C152.951 13.2145 153.101 13.6285 153.365 13.9044C153.641 14.1684 153.989 14.3004 154.409 14.3004C154.997 14.3004 155.417 14.0364 155.669 13.5085H159.431C159.275 14.2044 158.969 14.8283 158.513 15.3802C158.069 15.9201 157.505 16.3461 156.821 16.658C156.137 16.97 155.381 17.126 154.553 17.126C153.557 17.126 152.669 16.916 151.89 16.4961C151.122 16.0761 150.516 15.4762 150.072 14.6963C149.64 13.9164 149.424 12.9986 149.424 11.9427C149.424 10.8868 149.64 9.97497 150.072 9.20708C150.504 8.42719 151.104 7.82727 151.872 7.40733C152.651 6.98739 153.545 6.77742 154.553 6.77742C155.549 6.77742 156.431 6.98139 157.199 7.38933C157.967 7.79728 158.567 8.3852 158.999 9.15309C159.431 9.90898 159.647 10.8029 159.647 11.8347ZM156.047 10.9528C156.047 10.5209 155.903 10.1849 155.615 9.94498C155.327 9.69301 154.967 9.56703 154.535 9.56703C154.103 9.56703 153.749 9.68702 153.473 9.92698C153.197 10.155 153.017 10.4969 152.933 10.9528H156.047ZM160.514 11.9427C160.514 10.8988 160.7 9.98697 161.072 9.20708C161.456 8.42719 161.978 7.82727 162.638 7.40733C163.298 6.98739 164.03 6.77742 164.834 6.77742C165.482 6.77742 166.057 6.9154 166.561 7.19136C167.077 7.45532 167.479 7.82127 167.767 8.28921V3.68185H171.313V17H167.767V15.5962C167.491 16.0641 167.101 16.4361 166.597 16.712C166.093 16.988 165.5 17.126 164.816 17.126C164.012 17.126 163.28 16.916 162.62 16.4961C161.972 16.0761 161.456 15.4762 161.072 14.6963C160.7 13.9044 160.514 12.9866 160.514 11.9427ZM167.785 11.9427C167.785 11.2948 167.605 10.7849 167.245 10.4129C166.897 10.041 166.465 9.85499 165.949 9.85499C165.422 9.85499 164.984 10.041 164.636 10.4129C164.288 10.7729 164.114 11.2828 164.114 11.9427C164.114 12.5906 164.288 13.1065 164.636 13.4905C164.984 13.8624 165.422 14.0484 165.949 14.0484C166.465 14.0484 166.897 13.8624 167.245 13.4905C167.605 13.1185 167.785 12.6026 167.785 11.9427ZM84.7689 37L82.2493 32.3206H81.8713V37H78.3438V24.3118H83.905C84.9249 24.3118 85.7888 24.4917 86.4967 24.8517C87.2046 25.1996 87.7385 25.6856 88.0984 26.3095C88.4584 26.9214 88.6384 27.6113 88.6384 28.3792C88.6384 29.2431 88.3984 30.005 87.9185 30.6649C87.4505 31.3128 86.7606 31.7747 85.8488 32.0507L88.7104 37H84.7689ZM81.8713 29.909H83.6171C84.097 29.909 84.4569 29.795 84.6969 29.567C84.9369 29.3391 85.0569 29.0091 85.0569 28.5772C85.0569 28.1692 84.9309 27.8513 84.6789 27.6233C84.439 27.3833 84.085 27.2634 83.6171 27.2634H81.8713V29.909ZM99.8892 31.8347C99.8892 32.1107 99.8712 32.3866 99.8352 32.6626H93.1581C93.1941 33.2145 93.3441 33.6285 93.6081 33.9044C93.884 34.1684 94.232 34.3004 94.6519 34.3004C95.2398 34.3004 95.6598 34.0364 95.9117 33.5085H99.6732C99.5172 34.2044 99.2113 34.8283 98.7554 35.3802C98.3114 35.9201 97.7475 36.3461 97.0636 36.658C96.3797 36.97 95.6238 37.126 94.7959 37.126C93.8 37.126 92.9122 36.916 92.1323 36.4961C91.3644 36.0761 90.7585 35.4762 90.3145 34.6963C89.8826 33.9164 89.6666 32.9986 89.6666 31.9427C89.6666 30.8868 89.8826 29.975 90.3145 29.2071C90.7465 28.4272 91.3464 27.8273 92.1143 27.4073C92.8942 26.9874 93.788 26.7774 94.7959 26.7774C95.7918 26.7774 96.6736 26.9814 97.4415 27.3893C98.2094 27.7973 98.8093 28.3852 99.2413 29.1531C99.6732 29.909 99.8892 30.8029 99.8892 31.8347ZM96.2897 30.9528C96.2897 30.5209 96.1457 30.1849 95.8578 29.945C95.5698 29.693 95.2098 29.567 94.7779 29.567C94.346 29.567 93.992 29.687 93.7161 29.927C93.4401 30.155 93.2601 30.4969 93.1761 30.9528H96.2897ZM100.757 31.9427C100.757 30.8988 100.973 29.987 101.405 29.2071C101.837 28.4272 102.437 27.8273 103.205 27.4073C103.984 26.9874 104.872 26.7774 105.868 26.7774C107.152 26.7774 108.232 27.1314 109.108 27.8393C109.984 28.5352 110.548 29.513 110.799 30.7729H107.056C106.84 30.113 106.42 29.783 105.796 29.783C105.352 29.783 104.998 29.969 104.734 30.3409C104.482 30.7009 104.356 31.2348 104.356 31.9427C104.356 32.6506 104.482 33.1905 104.734 33.5625C104.998 33.9344 105.352 34.1204 105.796 34.1204C106.432 34.1204 106.852 33.7904 107.056 33.1305H110.799C110.548 34.3784 109.984 35.3562 109.108 36.0641C108.232 36.772 107.152 37.126 105.868 37.126C104.872 37.126 103.984 36.916 103.205 36.4961C102.437 36.0761 101.837 35.4762 101.405 34.6963C100.973 33.9164 100.757 32.9986 100.757 31.9427ZM115.792 28.6852C116.188 28.1092 116.668 27.6533 117.232 27.3173C117.796 26.9814 118.402 26.8134 119.05 26.8134V30.5749H118.06C117.292 30.5749 116.722 30.7249 116.35 31.0248C115.978 31.3248 115.792 31.8467 115.792 32.5906V37H112.265V26.9034H115.792V28.6852ZM130.645 26.9034V37H127.1V35.5602C126.8 36.0161 126.386 36.3881 125.858 36.676C125.33 36.952 124.724 37.09 124.04 37.09C122.864 37.09 121.934 36.706 121.25 35.9381C120.578 35.1583 120.243 34.1024 120.243 32.7706V26.9034H123.752V32.3206C123.752 32.8966 123.902 33.3525 124.202 33.6885C124.514 34.0124 124.922 34.1744 125.426 34.1744C125.942 34.1744 126.35 34.0124 126.65 33.6885C126.95 33.3525 127.1 32.8966 127.1 32.3206V26.9034H130.645ZM134.434 25.9675C133.811 25.9675 133.307 25.7996 132.923 25.4636C132.551 25.1156 132.365 24.6837 132.365 24.1678C132.365 23.6399 132.551 23.2019 132.923 22.854C133.307 22.506 133.811 22.332 134.434 22.332C135.046 22.332 135.538 22.506 135.91 22.854C136.294 23.2019 136.486 23.6399 136.486 24.1678C136.486 24.6837 136.294 25.1156 135.91 25.4636C135.538 25.7996 135.046 25.9675 134.434 25.9675ZM136.18 26.9034V37H132.653V26.9034H136.18ZM144.146 33.9944V37H142.616C140.037 37 138.747 35.7222 138.747 33.1665V29.837H137.505V26.9034H138.747V24.4557H142.292V26.9034H144.128V29.837H142.292V33.2205C142.292 33.4965 142.352 33.6945 142.472 33.8144C142.604 33.9344 142.82 33.9944 143.12 33.9944H144.146ZM158.956 26.8134C160.228 26.8134 161.224 27.1974 161.944 27.9653C162.676 28.7331 163.042 29.783 163.042 31.1148V37H159.514V31.5828C159.514 31.0428 159.364 30.6229 159.064 30.3229C158.764 30.023 158.356 29.873 157.84 29.873C157.325 29.873 156.917 30.023 156.617 30.3229C156.317 30.6229 156.167 31.0428 156.167 31.5828V37H152.639V31.5828C152.639 31.0428 152.489 30.6229 152.189 30.3229C151.901 30.023 151.499 29.873 150.983 29.873C150.455 29.873 150.042 30.023 149.742 30.3229C149.442 30.6229 149.292 31.0428 149.292 31.5828V37H145.764V26.9034H149.292V28.2352C149.604 27.8033 150.006 27.4613 150.497 27.2094C151.001 26.9454 151.577 26.8134 152.225 26.8134C152.969 26.8134 153.629 26.9754 154.205 27.2993C154.793 27.6233 155.255 28.0792 155.591 28.6672C155.951 28.1152 156.425 27.6713 157.013 27.3353C157.6 26.9874 158.248 26.8134 158.956 26.8134ZM174.621 31.8347C174.621 32.1107 174.603 32.3866 174.567 32.6626H167.89C167.926 33.2145 168.076 33.6285 168.34 33.9044C168.616 34.1684 168.964 34.3004 169.384 34.3004C169.972 34.3004 170.392 34.0364 170.644 33.5085H174.405C174.249 34.2044 173.943 34.8283 173.487 35.3802C173.043 35.9201 172.479 36.3461 171.795 36.658C171.112 36.97 170.356 37.126 169.528 37.126C168.532 37.126 167.644 36.916 166.864 36.4961C166.096 36.0761 165.49 35.4762 165.046 34.6963C164.614 33.9164 164.398 32.9986 164.398 31.9427C164.398 30.8868 164.614 29.975 165.046 29.2071C165.478 28.4272 166.078 27.8273 166.846 27.4073C167.626 26.9874 168.52 26.7774 169.528 26.7774C170.524 26.7774 171.405 26.9814 172.173 27.3893C172.941 27.7973 173.541 28.3852 173.973 29.1531C174.405 29.909 174.621 30.8029 174.621 31.8347ZM171.022 30.9528C171.022 30.5209 170.878 30.1849 170.59 29.945C170.302 29.693 169.942 29.567 169.51 29.567C169.078 29.567 168.724 29.687 168.448 29.927C168.172 30.155 167.992 30.4969 167.908 30.9528H171.022ZM182.67 26.8134C183.834 26.8134 184.757 27.2034 185.441 27.9833C186.125 28.7511 186.467 29.795 186.467 31.1148V37H182.94V31.5828C182.94 31.0068 182.79 30.5569 182.49 30.2329C182.19 29.897 181.788 29.729 181.284 29.729C180.756 29.729 180.342 29.897 180.042 30.2329C179.742 30.5569 179.592 31.0068 179.592 31.5828V37H176.065V26.9034H179.592V28.3432C179.904 27.8873 180.324 27.5213 180.852 27.2454C181.38 26.9574 181.986 26.8134 182.67 26.8134ZM194.36 33.9944V37H192.83C190.25 37 188.961 35.7222 188.961 33.1665V29.837H187.719V26.9034H188.961V24.4557H192.506V26.9034H194.342V29.837H192.506V33.2205C192.506 33.4965 192.566 33.6945 192.686 33.8144C192.818 33.9344 193.034 33.9944 193.334 33.9944H194.36Z" fill="white"/>
</svg>
