<svg width="196" height="46" viewBox="0 0 196 46" fill="none" xmlns="http://www.w3.org/2000/svg">
<path d="M30.7808 7.07294V32.5574H22.7899V22.6228H15.195V32.5574H7.2041V7.07294H15.195V16.2517H22.7899V7.07294H30.7808Z" fill="white"/>
<path d="M47.1903 32.5574L42.403 23.4147H42.367V32.5574H34.3761V7.07294H46.2545C48.3182 7.07294 50.0819 7.44488 51.5457 8.18878C53.0095 8.90868 54.1014 9.90454 54.8213 11.1764C55.5652 12.4242 55.9371 13.84 55.9371 15.4238C55.9371 17.1275 55.4572 18.6393 54.4973 19.9591C53.5614 21.279 52.2056 22.2268 50.4299 22.8028L55.9731 32.5574H47.1903ZM42.367 18.0874H45.5346C46.3025 18.0874 46.8784 17.9194 47.2623 17.5835C47.6463 17.2235 47.8382 16.6716 47.8382 15.9277C47.8382 15.2558 47.6343 14.7279 47.2263 14.3439C46.8424 13.96 46.2785 13.768 45.5346 13.768H42.367V18.0874Z" fill="white"/>
<path fill-rule="evenodd" clip-rule="evenodd" d="M34.3757 7.07292V32.5574H42.3666V23.4146H42.4025L47.1899 32.5574H55.9727L50.4294 22.8027C50.7959 22.6839 51.1445 22.5492 51.4752 22.3987C51.5456 22.3666 51.6152 22.3338 51.684 22.3003C51.9795 22.1565 52.2601 21.9993 52.5257 21.8289C52.9061 21.5849 53.2558 21.3137 53.5748 21.0154C53.9176 20.6947 54.225 20.3426 54.4969 19.9591C55.4567 18.6393 55.9367 17.1275 55.9367 15.4238C55.9367 13.84 55.5647 12.4242 54.8208 11.1763C54.1009 9.90452 53.0091 8.90866 51.5453 8.18876C50.1727 7.49122 48.5364 7.12071 46.6363 7.07725C46.51 7.07436 46.3826 7.07292 46.254 7.07292H34.3757ZM46.1668 13.822C45.9728 13.786 45.7619 13.768 45.5341 13.768H42.3666V18.0874H45.5341C46.1715 18.0874 46.6767 17.9716 47.0496 17.7401C47.1259 17.6928 47.1966 17.6405 47.2619 17.5835C47.5264 17.3355 47.6998 16.9964 47.7821 16.5662C47.8192 16.3719 47.8378 16.1591 47.8378 15.9277C47.8378 15.2558 47.6338 14.7279 47.2259 14.3439C46.9595 14.0775 46.6065 13.9035 46.1668 13.822ZM54.5631 2.15191C57.0588 3.38763 59.1997 5.2449 60.6562 7.78497C62.052 10.154 62.6857 12.7608 62.6857 15.4238C62.6857 18.474 61.8 21.3777 59.9784 23.8966C59.7636 24.1976 59.5394 24.4864 59.3063 24.7634L67.5706 39.3064H0.45459V0.323853H46.254C49.0994 0.323853 51.9508 0.833803 54.5631 2.15191ZM30.7804 7.07292V32.5574H22.7895V22.6228H15.1945V32.5574H7.20365V7.07292H15.1945V16.2516H22.7895V7.07292H30.7804Z" fill="#C31D25"/>
<path d="M68.6515 24.319L68.6522 24.3201C68.9849 24.8286 69.1273 25.4383 69.0542 26.0415C68.987 26.5953 68.7423 27.111 68.3588 27.5123L68.34 27.5373L68.2478 27.623L68.1716 27.6938L67.9189 27.9354C66.4826 29.3288 65.0897 30.7663 63.7423 32.2459L68.6515 24.319ZM68.6515 24.319L67.4918 22.5502C67.4917 22.55 67.4916 22.5499 67.4915 22.5497C67.1263 21.9924 66.5594 21.5981 65.9098 21.4496C65.26 21.3011 64.578 21.4101 64.0069 21.7536M68.6515 24.319L44.3561 33.4945M44.3561 33.4945C44.4122 33.6412 44.4972 33.7751 44.6061 33.8883L52.2047 41.7833M44.3561 33.4945L43.0428 33.9968C43.1663 34.3195 43.3533 34.6141 43.5929 34.8631L43.5931 34.8633L51.1908 42.7574L52.2047 41.7833M44.3561 33.4945L43.0428 33.9967C42.9194 33.674 42.8621 33.3298 42.8744 32.9844C42.8866 32.6391 42.9682 32.2998 43.1142 31.9866L44.3807 32.5771L43.1142 31.9866C43.2602 31.6735 43.4676 31.393 43.7241 31.1617C43.7242 31.1616 43.7243 31.1615 43.7243 31.1615L46.0207 29.0901L46.0209 29.0898C46.4649 28.6895 47.0343 28.456 47.6315 28.4292C48.2287 28.4024 48.8166 28.584 49.2947 28.9429L52.2069 31.1264C57.8126 25.6983 61.1421 23.4764 64.0069 21.7536M44.3561 33.4945C44.3 33.3478 44.274 33.1913 44.2795 33.0343C44.2851 32.8774 44.3222 32.7231 44.3886 32.5808C44.4549 32.4384 44.5493 32.3109 44.6659 32.2057L44.3561 33.4945ZM52.2047 41.7833L51.1916 42.7583C52.6983 44.3254 55.2112 43.9151 56.2336 42.1291L56.2336 42.1291C58.2149 38.6674 61.1908 35.0519 63.7417 32.2467L62.7021 31.3C60.1278 34.1308 57.0708 37.8358 55.0133 41.4306C54.4392 42.4336 53.0366 42.6492 52.2047 41.7833ZM64.0069 21.7536L64.7315 22.9586L64.0067 21.7537C64.0068 21.7537 64.0068 21.7536 64.0069 21.7536Z" fill="white" stroke="#C31D25" stroke-width="2.81211"/>
<path d="M90.1548 4.63561V17.3239H86.6273V12.2306H82.3259V17.3239H78.7984V4.63561H82.3259V9.40495H86.6273V4.63561H90.1548ZM98.5986 17.3239L96.0789 12.6445H95.701V17.3239H92.1735V4.63561H97.7347C98.7546 4.63561 99.6185 4.81559 100.326 5.17554C101.034 5.52349 101.568 6.00942 101.928 6.63334C102.288 7.24525 102.468 7.93516 102.468 8.70305C102.468 9.56693 102.228 10.3288 101.748 10.9887C101.28 11.6366 100.59 12.0986 99.6784 12.3745L102.54 17.3239H98.5986ZM95.701 10.2328H97.4468C97.9267 10.2328 98.2866 10.1189 98.5266 9.89088C98.7666 9.66292 98.8866 9.33296 98.8866 8.90102C98.8866 8.49308 98.7606 8.17512 98.5086 7.94715C98.2686 7.70719 97.9147 7.5872 97.4468 7.5872H95.701V10.2328ZM110.973 4.63561V11.9966C110.973 12.6805 111.129 13.2084 111.441 13.5804C111.764 13.9523 112.25 14.1383 112.898 14.1383C113.546 14.1383 114.032 13.9523 114.356 13.5804C114.692 13.1964 114.86 12.6685 114.86 11.9966V4.63561H118.388V11.9966C118.388 13.1604 118.142 14.1563 117.65 14.9842C117.158 15.8001 116.486 16.418 115.634 16.8379C114.794 17.2459 113.858 17.4498 112.826 17.4498C111.794 17.4498 110.871 17.2459 110.055 16.8379C109.251 16.418 108.615 15.8001 108.147 14.9842C107.691 14.1683 107.463 13.1724 107.463 11.9966V4.63561H110.973ZM126.935 7.13727C128.099 7.13727 129.023 7.52721 129.706 8.3071C130.39 9.075 130.732 10.1189 130.732 11.4387V17.3239H127.205V11.9066C127.205 11.3307 127.055 10.8807 126.755 10.5568C126.455 10.2208 126.053 10.0529 125.549 10.0529C125.021 10.0529 124.607 10.2208 124.307 10.5568C124.007 10.8807 123.857 11.3307 123.857 11.9066V17.3239H120.33V7.22725H123.857V8.66705C124.169 8.21112 124.589 7.84517 125.117 7.56921C125.645 7.28125 126.251 7.13727 126.935 7.13727ZM134.45 6.29138C133.826 6.29138 133.322 6.12341 132.938 5.78745C132.566 5.4395 132.38 5.00756 132.38 4.49163C132.38 3.96371 132.566 3.52577 132.938 3.17782C133.322 2.82986 133.826 2.65589 134.45 2.65589C135.062 2.65589 135.553 2.82986 135.925 3.17782C136.309 3.52577 136.501 3.96371 136.501 4.49163C136.501 5.00756 136.309 5.4395 135.925 5.78745C135.553 6.12341 135.062 6.29138 134.45 6.29138ZM136.195 7.22725V17.3239H132.668V7.22725H136.195ZM143.657 10.1608H142.074V17.3239H138.528V10.1608H137.43V7.22725H138.528V7.13727C138.528 5.84145 138.906 4.85158 139.662 4.16768C140.43 3.47178 141.528 3.12382 142.956 3.12382C143.244 3.12382 143.465 3.12982 143.621 3.14182V6.1474C143.525 6.13541 143.393 6.12941 143.226 6.12941C142.842 6.12941 142.56 6.21939 142.38 6.39937C142.2 6.56734 142.098 6.84331 142.074 7.22725H143.657V10.1608ZM146.7 6.29138C146.076 6.29138 145.572 6.12341 145.188 5.78745C144.816 5.4395 144.63 5.00756 144.63 4.49163C144.63 3.96371 144.816 3.52577 145.188 3.17782C145.572 2.82986 146.076 2.65589 146.7 2.65589C147.312 2.65589 147.804 2.82986 148.176 3.17782C148.56 3.52577 148.752 3.96371 148.752 4.49163C148.752 5.00756 148.56 5.4395 148.176 5.78745C147.804 6.12341 147.312 6.29138 146.7 6.29138ZM148.446 7.22725V17.3239H144.918V7.22725H148.446ZM160.101 12.1586C160.101 12.4345 160.083 12.7105 160.047 12.9865H153.37C153.406 13.5384 153.556 13.9523 153.82 14.2283C154.096 14.4922 154.444 14.6242 154.864 14.6242C155.452 14.6242 155.872 14.3603 156.124 13.8323H159.885C159.729 14.5282 159.423 15.1522 158.967 15.7041C158.523 16.244 157.959 16.6699 157.276 16.9819C156.592 17.2939 155.836 17.4498 155.008 17.4498C154.012 17.4498 153.124 17.2399 152.344 16.8199C151.576 16.4 150.97 15.8001 150.526 15.0202C150.095 14.2403 149.879 13.3224 149.879 12.2666C149.879 11.2107 150.095 10.2988 150.526 9.53093C150.958 8.75104 151.558 8.15113 152.326 7.73118C153.106 7.31124 154 7.10127 155.008 7.10127C156.004 7.10127 156.886 7.30524 157.653 7.71319C158.421 8.12113 159.021 8.70905 159.453 9.47694C159.885 10.2328 160.101 11.1267 160.101 12.1586ZM156.502 11.2767C156.502 10.8448 156.358 10.5088 156.07 10.2688C155.782 10.0169 155.422 9.89088 154.99 9.89088C154.558 9.89088 154.204 10.0109 153.928 10.2508C153.652 10.4788 153.472 10.8208 153.388 11.2767H156.502ZM160.969 12.2666C160.969 11.2227 161.155 10.3108 161.527 9.53093C161.911 8.75104 162.433 8.15113 163.092 7.73118C163.752 7.31124 164.484 7.10127 165.288 7.10127C165.936 7.10127 166.512 7.23925 167.016 7.51521C167.532 7.77918 167.934 8.14513 168.222 8.61306V4.0057H171.767V17.3239H168.222V15.92C167.946 16.388 167.556 16.7599 167.052 17.0359C166.548 17.3119 165.954 17.4498 165.27 17.4498C164.466 17.4498 163.734 17.2399 163.074 16.8199C162.427 16.4 161.911 15.8001 161.527 15.0202C161.155 14.2283 160.969 13.3104 160.969 12.2666ZM168.24 12.2666C168.24 11.6186 168.06 11.1087 167.7 10.7368C167.352 10.3648 166.92 10.1788 166.404 10.1788C165.876 10.1788 165.438 10.3648 165.09 10.7368C164.742 11.0967 164.568 11.6066 164.568 12.2666C164.568 12.9145 164.742 13.4304 165.09 13.8143C165.438 14.1863 165.876 14.3723 166.404 14.3723C166.92 14.3723 167.352 14.1863 167.7 13.8143C168.06 13.4424 168.24 12.9265 168.24 12.2666ZM85.2235 37.3239L82.7038 32.6445H82.3259V37.3239H78.7984V24.6356H84.3596C85.3795 24.6356 86.2434 24.8156 86.9513 25.1755C87.6592 25.5235 88.1931 26.0094 88.553 26.6333C88.913 27.2453 89.093 27.9352 89.093 28.703C89.093 29.5669 88.853 30.3288 88.3731 30.9887C87.9051 31.6366 87.2152 32.0986 86.3033 32.3745L89.1649 37.3239H85.2235ZM82.3259 30.2328H84.0717C84.5516 30.2328 84.9115 30.1189 85.1515 29.8909C85.3915 29.6629 85.5115 29.333 85.5115 28.901C85.5115 28.4931 85.3855 28.1751 85.1335 27.9472C84.8935 27.7072 84.5396 27.5872 84.0717 27.5872H82.3259V30.2328ZM100.344 32.1586C100.344 32.4345 100.326 32.7105 100.29 32.9865H93.6127C93.6487 33.5384 93.7987 33.9523 94.0627 34.2283C94.3386 34.4922 94.6866 34.6242 95.1065 34.6242C95.6944 34.6242 96.1144 34.3603 96.3663 33.8323H100.128C99.9718 34.5282 99.6659 35.1522 99.2099 35.7041C98.766 36.244 98.2021 36.6699 97.5182 36.9819C96.8343 37.2939 96.0784 37.4498 95.2505 37.4498C94.2546 37.4498 93.3668 37.2399 92.5869 36.8199C91.819 36.4 91.2131 35.8001 90.7691 35.0202C90.3372 34.2403 90.1212 33.3224 90.1212 32.2666C90.1212 31.2107 90.3372 30.2988 90.7691 29.5309C91.2011 28.751 91.801 28.1511 92.5689 27.7312C93.3488 27.3112 94.2426 27.1013 95.2505 27.1013C96.2464 27.1013 97.1282 27.3052 97.8961 27.7132C98.664 28.1211 99.2639 28.709 99.6959 29.4769C100.128 30.2328 100.344 31.1267 100.344 32.1586ZM96.7443 31.2767C96.7443 30.8448 96.6003 30.5088 96.3123 30.2688C96.0244 30.0169 95.6644 29.8909 95.2325 29.8909C94.8006 29.8909 94.4466 30.0109 94.1706 30.2508C93.8947 30.4788 93.7147 30.8208 93.6307 31.2767H96.7443ZM101.211 32.2666C101.211 31.2227 101.427 30.3108 101.859 29.5309C102.291 28.751 102.891 28.1511 103.659 27.7312C104.439 27.3112 105.327 27.1013 106.323 27.1013C107.607 27.1013 108.686 27.4552 109.562 28.1631C110.438 28.859 111.002 29.8369 111.254 31.0967H107.511C107.295 30.4368 106.875 30.1069 106.251 30.1069C105.807 30.1069 105.453 30.2928 105.189 30.6648C104.937 31.0247 104.811 31.5587 104.811 32.2666C104.811 32.9745 104.937 33.5144 105.189 33.8863C105.453 34.2583 105.807 34.4443 106.251 34.4443C106.887 34.4443 107.307 34.1143 107.511 33.4544H111.254C111.002 34.7022 110.438 35.6801 109.562 36.388C108.686 37.0959 107.607 37.4498 106.323 37.4498C105.327 37.4498 104.439 37.2399 103.659 36.8199C102.891 36.4 102.291 35.8001 101.859 35.0202C101.427 34.2403 101.211 33.3224 101.211 32.2666ZM116.247 29.009C116.643 28.4331 117.123 27.9771 117.687 27.6412C118.251 27.3052 118.857 27.1373 119.505 27.1373V30.8987H118.515C117.747 30.8987 117.177 31.0487 116.805 31.3487C116.433 31.6486 116.247 32.1706 116.247 32.9145V37.3239H112.719V27.2273H116.247V29.009ZM131.1 27.2273V37.3239H127.554V35.8841C127.254 36.34 126.84 36.7119 126.312 36.9999C125.784 37.2759 125.179 37.4138 124.495 37.4138C123.319 37.4138 122.389 37.0299 121.705 36.262C121.033 35.4821 120.697 34.4263 120.697 33.0944V27.2273H124.207V32.6445C124.207 33.2204 124.357 33.6764 124.657 34.0123C124.969 34.3363 125.376 34.4982 125.88 34.4982C126.396 34.4982 126.804 34.3363 127.104 34.0123C127.404 33.6764 127.554 33.2204 127.554 32.6445V27.2273H131.1ZM134.889 26.2914C134.265 26.2914 133.761 26.1234 133.377 25.7875C133.005 25.4395 132.819 25.0076 132.819 24.4916C132.819 23.9637 133.005 23.5258 133.377 23.1778C133.761 22.8299 134.265 22.6559 134.889 22.6559C135.501 22.6559 135.993 22.8299 136.365 23.1778C136.749 23.5258 136.941 23.9637 136.941 24.4916C136.941 25.0076 136.749 25.4395 136.365 25.7875C135.993 26.1234 135.501 26.2914 134.889 26.2914ZM136.635 27.2273V37.3239H133.107V27.2273H136.635ZM144.601 34.3183V37.3239H143.071C140.491 37.3239 139.202 36.046 139.202 33.4904V30.1608H137.96V27.2273H139.202V24.7796H142.747V27.2273H144.583V30.1608H142.747V33.5444C142.747 33.8203 142.807 34.0183 142.927 34.1383C143.059 34.2583 143.275 34.3183 143.575 34.3183H144.601ZM159.411 27.1373C160.683 27.1373 161.679 27.5212 162.398 28.2891C163.13 29.057 163.496 30.1069 163.496 31.4387V37.3239H159.969V31.9066C159.969 31.3667 159.819 30.9467 159.519 30.6468C159.219 30.3468 158.811 30.1968 158.295 30.1968C157.779 30.1968 157.371 30.3468 157.071 30.6468C156.771 30.9467 156.621 31.3667 156.621 31.9066V37.3239H153.094V31.9066C153.094 31.3667 152.944 30.9467 152.644 30.6468C152.356 30.3468 151.954 30.1968 151.438 30.1968C150.91 30.1968 150.496 30.3468 150.196 30.6468C149.896 30.9467 149.746 31.3667 149.746 31.9066V37.3239H146.219V27.2273H149.746V28.5591C150.058 28.1271 150.46 27.7852 150.952 27.5332C151.456 27.2692 152.032 27.1373 152.68 27.1373C153.424 27.1373 154.084 27.2992 154.66 27.6232C155.247 27.9472 155.709 28.4031 156.045 28.991C156.405 28.4391 156.879 27.9951 157.467 27.6592C158.055 27.3112 158.703 27.1373 159.411 27.1373ZM175.076 32.1586C175.076 32.4345 175.058 32.7105 175.022 32.9865H168.345C168.381 33.5384 168.531 33.9523 168.794 34.2283C169.07 34.4922 169.418 34.6242 169.838 34.6242C170.426 34.6242 170.846 34.3603 171.098 33.8323H174.86C174.704 34.5282 174.398 35.1522 173.942 35.7041C173.498 36.244 172.934 36.6699 172.25 36.9819C171.566 37.2939 170.81 37.4498 169.982 37.4498C168.986 37.4498 168.099 37.2399 167.319 36.8199C166.551 36.4 165.945 35.8001 165.501 35.0202C165.069 34.2403 164.853 33.3224 164.853 32.2666C164.853 31.2107 165.069 30.2988 165.501 29.5309C165.933 28.751 166.533 28.1511 167.301 27.7312C168.081 27.3112 168.974 27.1013 169.982 27.1013C170.978 27.1013 171.86 27.3052 172.628 27.7132C173.396 28.1211 173.996 28.709 174.428 29.4769C174.86 30.2328 175.076 31.1267 175.076 32.1586ZM171.476 31.2767C171.476 30.8448 171.332 30.5088 171.044 30.2688C170.756 30.0169 170.396 29.8909 169.964 29.8909C169.532 29.8909 169.178 30.0109 168.902 30.2508C168.626 30.4788 168.447 30.8208 168.363 31.2767H171.476ZM183.124 27.1373C184.288 27.1373 185.212 27.5272 185.896 28.3071C186.58 29.075 186.922 30.1189 186.922 31.4387V37.3239H183.394V31.9066C183.394 31.3307 183.244 30.8807 182.944 30.5568C182.644 30.2208 182.242 30.0529 181.738 30.0529C181.211 30.0529 180.797 30.2208 180.497 30.5568C180.197 30.8807 180.047 31.3307 180.047 31.9066V37.3239H176.519V27.2273H180.047V28.6671C180.359 28.2111 180.779 27.8452 181.307 27.5692C181.834 27.2812 182.44 27.1373 183.124 27.1373ZM194.815 34.3183V37.3239H193.285C190.705 37.3239 189.415 36.046 189.415 33.4904V30.1608H188.173V27.2273H189.415V24.7796H192.961V27.2273H194.797V30.1608H192.961V33.5444C192.961 33.8203 193.021 34.0183 193.141 34.1383C193.273 34.2583 193.489 34.3183 193.789 34.3183H194.815Z" fill="white"/>
</svg>
