<svg width="186" height="40" viewBox="0 0 186 40" fill="none" xmlns="http://www.w3.org/2000/svg">
<g clip-path="url(#clip0_298_3840)">
<path d="M26.3947 7.79163V29.3241H19.643V20.9301H13.2258V29.3241H6.47412V7.79163H13.2258V15.547H19.643V7.79163H26.3947Z" fill="white"/>
<path d="M40.2597 29.3241L36.2148 21.5992H36.1843V29.3241H29.4326V7.79163H39.469C41.2127 7.79163 42.7029 8.10587 43.9397 8.73444C45.1765 9.34267 46.099 10.1841 46.7073 11.2587C47.3359 12.313 47.6501 13.5093 47.6501 14.8475C47.6501 16.287 47.2447 17.5644 46.4336 18.6796C45.6429 19.7947 44.4973 20.5955 42.9969 21.0822L47.6807 29.3241H40.2597ZM36.1843 17.0981H38.8607C39.5095 17.0981 39.9962 16.9561 40.3205 16.6723C40.6449 16.3681 40.8072 15.9018 40.8072 15.2733C40.8072 14.7055 40.6348 14.2595 40.2901 13.9351C39.9657 13.6107 39.4893 13.4485 38.8607 13.4485H36.1843V17.0981Z" fill="white"/>
<path fill-rule="evenodd" clip-rule="evenodd" d="M29.4323 7.79164V29.3242H36.1841V21.5992H36.2145L40.2594 29.3242H47.6804L42.9966 21.0822C43.3062 20.9818 43.6008 20.8679 43.8802 20.7408C43.9397 20.7137 43.9985 20.686 44.0566 20.6577C44.3063 20.5361 44.5434 20.4034 44.7678 20.2594C45.0892 20.0532 45.3847 19.8241 45.6542 19.572C45.9439 19.301 46.2036 19.0036 46.4333 18.6796C47.2443 17.5644 47.6498 16.287 47.6498 14.8475C47.6498 13.5093 47.3356 12.3131 46.707 11.2587C46.0988 10.1842 45.1762 9.34273 43.9394 8.73445C42.7797 8.14508 41.3971 7.83205 39.7917 7.7953C39.685 7.79284 39.5773 7.79164 39.4687 7.79164H29.4323ZM39.395 13.4941C39.2311 13.4637 39.0529 13.4485 38.8604 13.4485H36.1841V17.0981H38.8604C39.399 17.0981 39.8258 17.0003 40.1408 16.8047C40.2053 16.7646 40.2651 16.7205 40.3202 16.6723C40.5437 16.4628 40.6903 16.1762 40.7598 15.8128C40.7911 15.6486 40.8069 15.4688 40.8069 15.2733C40.8069 14.7056 40.6345 14.2595 40.2898 13.9351C40.0647 13.71 39.7665 13.563 39.395 13.4941ZM46.4893 3.63375C48.5979 4.67784 50.4066 6.2471 51.6375 8.39329C52.8169 10.3949 53.3521 12.5975 53.3521 14.8475C53.3521 17.4247 52.6037 19.8781 51.0647 22.0065C50.8835 22.2607 50.6939 22.5048 50.497 22.7388L57.4797 35.0267H0.771484V2.08917H39.4687C41.8728 2.08917 44.282 2.52004 46.4893 3.63375ZM26.3946 7.79164V29.3242H19.6428V20.9301H13.2257V29.3242H6.47395V7.79164H13.2257V15.547H19.6428V7.79164H26.3946Z" fill="#C31D25"/>
<path d="M54.4843 20.221C52.0625 21.6773 49.2468 23.5562 44.5013 28.1537L42.0205 26.2938C41.6221 25.9946 41.132 25.8432 40.6342 25.8656C40.1364 25.8879 39.662 26.0826 39.2919 26.4162L37.3514 28.1666C37.3515 28.1665 37.3514 28.1667 37.3514 28.1666C37.1376 28.3594 36.9646 28.5934 36.8429 28.8544C36.7212 29.1154 36.6532 29.3982 36.6429 29.686C36.6328 29.9738 36.6805 30.2608 36.7834 30.5298C36.8862 30.7988 37.0422 31.0444 37.2418 31.2519L43.6615 37.922C43.6616 37.9222 43.6618 37.9223 43.662 37.9225C43.6619 37.9224 43.6621 37.9226 43.662 37.9225C44.9209 39.2319 47.021 38.8895 47.8755 37.3969C49.5512 34.4694 52.0671 31.4125 54.2229 29.0418C55.362 27.7909 56.5395 26.5756 57.7541 25.3976L57.9678 25.1933L58.0322 25.1334L58.1082 25.0628L58.1235 25.0424C58.4437 24.7077 58.6481 24.2774 58.7041 23.8152C58.7653 23.3124 58.6467 22.8042 58.3691 22.3804L58.3686 22.3794L57.389 20.885C57.389 20.8849 57.3885 20.8847 57.3885 20.8847C57.3885 20.8847 57.3885 20.8846 57.3885 20.8847C57.084 20.4201 56.6118 20.0914 56.0701 19.9676C55.5288 19.8439 54.9602 19.9347 54.4843 20.221ZM54.4843 20.221L55.0779 21.2088L54.4838 20.2211C54.4838 20.221 54.4843 20.221 54.4843 20.221Z" fill="white"/>
<path d="M54.4843 20.221C52.0625 21.6773 49.2468 23.5562 44.5013 28.1537L42.0205 26.2938C41.6221 25.9946 41.132 25.8432 40.6342 25.8656C40.1364 25.8879 39.662 26.0826 39.2919 26.4162L37.3514 28.1666M54.4843 20.221C54.9602 19.9347 55.5288 19.8439 56.0701 19.9676C56.6118 20.0914 57.084 20.4201 57.3885 20.8847M54.4843 20.221L55.0779 21.2088L54.4838 20.2211C54.4838 20.221 54.4843 20.221 54.4843 20.221ZM37.3514 28.1666C37.3514 28.1667 37.3515 28.1665 37.3514 28.1666ZM37.3514 28.1666C37.1376 28.3594 36.9646 28.5934 36.8429 28.8544C36.7212 29.1154 36.6532 29.3982 36.6429 29.686C36.6328 29.9738 36.6805 30.2608 36.7834 30.5298C36.8862 30.7988 37.0422 31.0444 37.2418 31.2519L43.6615 37.922C43.6616 37.9222 43.6618 37.9223 43.662 37.9225M43.662 37.9225C43.6621 37.9226 43.6619 37.9224 43.662 37.9225ZM43.662 37.9225C44.9209 39.2319 47.021 38.8895 47.8755 37.3969C49.5512 34.4694 52.0671 31.4125 54.2229 29.0418C55.362 27.7909 56.5395 26.5756 57.7541 25.3976L57.9678 25.1933L58.0322 25.1334L58.1082 25.0628L58.1235 25.0424C58.4437 24.7077 58.6481 24.2774 58.7041 23.8152C58.7653 23.3124 58.6467 22.8042 58.3691 22.3804L58.3686 22.3794L57.389 20.885C57.389 20.8849 57.3885 20.8847 57.3885 20.8847M57.3885 20.8847C57.3885 20.8846 57.3885 20.8847 57.3885 20.8847Z" stroke="#C31D25" stroke-width="2.31707"/>
</g>
<path d="M80.3643 3.31176V16H76.8368V10.9067H72.5354V16H69.0079V3.31176H72.5354V8.0811H76.8368V3.31176H80.3643ZM88.8081 16L86.2884 11.3206H85.9105V16H82.383V3.31176H87.9442C88.964 3.31176 89.8279 3.49174 90.5358 3.85169C91.2437 4.19964 91.7777 4.68557 92.1376 5.30948C92.4976 5.9214 92.6775 6.6113 92.6775 7.3792C92.6775 8.24308 92.4376 9.00497 91.9576 9.66488C91.4897 10.3128 90.7998 10.7747 89.8879 11.0507L92.7495 16H88.8081ZM85.9105 8.90898H87.6562C88.1362 8.90898 88.4961 8.795 88.7361 8.56703C88.976 8.33906 89.096 8.00911 89.096 7.57717C89.096 7.16923 88.97 6.85127 88.7181 6.6233C88.4781 6.38333 88.1242 6.26335 87.6562 6.26335H85.9105V8.90898ZM101.182 3.31176V10.6727C101.182 11.3566 101.338 11.8846 101.65 12.2565C101.974 12.6285 102.46 12.8144 103.108 12.8144C103.756 12.8144 104.242 12.6285 104.566 12.2565C104.902 11.8726 105.07 11.3446 105.07 10.6727V3.31176H108.597V10.6727C108.597 11.8366 108.351 12.8324 107.859 13.6603C107.367 14.4762 106.695 15.0941 105.843 15.5141C105.004 15.922 104.068 16.126 103.036 16.126C102.004 16.126 101.08 15.922 100.264 15.5141C99.4603 15.0941 98.8244 14.4762 98.3564 13.6603C97.9005 12.8444 97.6725 11.8486 97.6725 10.6727V3.31176H101.182ZM117.144 5.81341C118.308 5.81341 119.232 6.20336 119.916 6.98325C120.6 7.75114 120.942 8.795 120.942 10.1148V16H117.414V10.5828C117.414 10.0068 117.264 9.55689 116.964 9.23294C116.664 8.89699 116.262 8.72901 115.758 8.72901C115.231 8.72901 114.817 8.89699 114.517 9.23294C114.217 9.55689 114.067 10.0068 114.067 10.5828V16H110.539V5.9034H114.067V7.3432C114.379 6.88726 114.799 6.52131 115.327 6.24535C115.854 5.95739 116.46 5.81341 117.144 5.81341ZM124.659 4.96753C124.035 4.96753 123.531 4.79955 123.147 4.4636C122.775 4.11565 122.589 3.68371 122.589 3.16778C122.589 2.63985 122.775 2.20192 123.147 1.85396C123.531 1.50601 124.035 1.33204 124.659 1.33204C125.271 1.33204 125.763 1.50601 126.135 1.85396C126.519 2.20192 126.711 2.63985 126.711 3.16778C126.711 3.68371 126.519 4.11565 126.135 4.4636C125.763 4.79955 125.271 4.96753 124.659 4.96753ZM126.405 5.9034V16H122.877V5.9034H126.405ZM133.867 8.83699H132.283V16H128.738V8.83699H127.64V5.9034H128.738V5.81341C128.738 4.51759 129.116 3.52773 129.871 2.84383C130.639 2.14792 131.737 1.79997 133.165 1.79997C133.453 1.79997 133.675 1.80597 133.831 1.81797V4.82355C133.735 4.81155 133.603 4.80555 133.435 4.80555C133.051 4.80555 132.769 4.89554 132.589 5.07552C132.409 5.24349 132.307 5.51945 132.283 5.9034H133.867V8.83699ZM136.909 4.96753C136.285 4.96753 135.781 4.79955 135.398 4.4636C135.026 4.11565 134.84 3.68371 134.84 3.16778C134.84 2.63985 135.026 2.20192 135.398 1.85396C135.781 1.50601 136.285 1.33204 136.909 1.33204C137.521 1.33204 138.013 1.50601 138.385 1.85396C138.769 2.20192 138.961 2.63985 138.961 3.16778C138.961 3.68371 138.769 4.11565 138.385 4.4636C138.013 4.79955 137.521 4.96753 136.909 4.96753ZM138.655 5.9034V16H135.128V5.9034H138.655ZM150.311 10.8347C150.311 11.1107 150.293 11.3866 150.257 11.6626H143.58C143.616 12.2145 143.765 12.6285 144.029 12.9044C144.305 13.1684 144.653 13.3004 145.073 13.3004C145.661 13.3004 146.081 13.0364 146.333 12.5085H150.095C149.939 13.2044 149.633 13.8283 149.177 14.3802C148.733 14.9201 148.169 15.3461 147.485 15.658C146.801 15.97 146.045 16.126 145.217 16.126C144.221 16.126 143.334 15.916 142.554 15.4961C141.786 15.0761 141.18 14.4762 140.736 13.6963C140.304 12.9164 140.088 11.9986 140.088 10.9427C140.088 9.88685 140.304 8.97497 140.736 8.20708C141.168 7.42719 141.768 6.82727 142.536 6.40733C143.316 5.98739 144.209 5.77742 145.217 5.77742C146.213 5.77742 147.095 5.98139 147.863 6.38933C148.631 6.79728 149.231 7.3852 149.663 8.15309C150.095 8.90898 150.311 9.80286 150.311 10.8347ZM146.711 9.95284C146.711 9.5209 146.567 9.18495 146.279 8.94498C145.991 8.69301 145.631 8.56703 145.199 8.56703C144.767 8.56703 144.413 8.68702 144.137 8.92698C143.861 9.15495 143.682 9.4969 143.598 9.95284H146.711ZM151.178 10.9427C151.178 9.89885 151.364 8.98697 151.736 8.20708C152.12 7.42719 152.642 6.82727 153.302 6.40733C153.962 5.98739 154.694 5.77742 155.498 5.77742C156.146 5.77742 156.721 5.9154 157.225 6.19136C157.741 6.45532 158.143 6.82127 158.431 7.28921V2.68185H161.977V16H158.431V14.5962C158.155 15.0641 157.765 15.4361 157.261 15.712C156.757 15.988 156.164 16.126 155.48 16.126C154.676 16.126 153.944 15.916 153.284 15.4961C152.636 15.0761 152.12 14.4762 151.736 13.6963C151.364 12.9044 151.178 11.9866 151.178 10.9427ZM158.449 10.9427C158.449 10.2948 158.269 9.78486 157.909 9.41291C157.561 9.04097 157.129 8.85499 156.614 8.85499C156.086 8.85499 155.648 9.04097 155.3 9.41291C154.952 9.77286 154.778 10.2828 154.778 10.9427C154.778 11.5906 154.952 12.1065 155.3 12.4905C155.648 12.8624 156.086 13.0484 156.614 13.0484C157.129 13.0484 157.561 12.8624 157.909 12.4905C158.269 12.1185 158.449 11.6026 158.449 10.9427ZM75.433 36L72.9133 31.3206H72.5354V36H69.0079V23.3118H74.5691C75.5889 23.3118 76.4528 23.4917 77.1607 23.8517C77.8686 24.1996 78.4026 24.6856 78.7625 25.3095C79.1225 25.9214 79.3024 26.6113 79.3024 27.3792C79.3024 28.2431 79.0625 29.005 78.5825 29.6649C78.1146 30.3128 77.4247 30.7747 76.5128 31.0507L79.3744 36H75.433ZM72.5354 28.909H74.2811C74.7611 28.909 75.121 28.795 75.361 28.567C75.6009 28.3391 75.7209 28.0091 75.7209 27.5772C75.7209 27.1692 75.5949 26.8513 75.343 26.6233C75.103 26.3833 74.7491 26.2634 74.2811 26.2634H72.5354V28.909ZM90.5533 30.8347C90.5533 31.1107 90.5353 31.3866 90.4993 31.6626H83.8222C83.8582 32.2145 84.0082 32.6285 84.2721 32.9044C84.5481 33.1684 84.896 33.3004 85.316 33.3004C85.9039 33.3004 86.3238 33.0364 86.5758 32.5085H90.3373C90.1813 33.2044 89.8754 33.8283 89.4194 34.3802C88.9755 34.9201 88.4116 35.3461 87.7277 35.658C87.0437 35.97 86.2879 36.126 85.46 36.126C84.4641 36.126 83.5762 35.916 82.7963 35.4961C82.0284 35.0761 81.4225 34.4762 80.9786 33.6963C80.5466 32.9164 80.3307 31.9986 80.3307 30.9427C80.3307 29.8868 80.5466 28.975 80.9786 28.2071C81.4105 27.4272 82.0104 26.8273 82.7783 26.4073C83.5582 25.9874 84.4521 25.7774 85.46 25.7774C86.4558 25.7774 87.3377 25.9814 88.1056 26.3893C88.8735 26.7973 89.4734 27.3852 89.9054 28.1531C90.3373 28.909 90.5533 29.8029 90.5533 30.8347ZM86.9538 29.9528C86.9538 29.5209 86.8098 29.1849 86.5218 28.945C86.2339 28.693 85.8739 28.567 85.442 28.567C85.01 28.567 84.6561 28.687 84.3801 28.927C84.1042 29.155 83.9242 29.4969 83.8402 29.9528H86.9538ZM91.4209 30.9427C91.4209 29.8988 91.6369 28.987 92.0688 28.2071C92.5008 27.4272 93.1007 26.8273 93.8686 26.4073C94.6485 25.9874 95.5364 25.7774 96.5322 25.7774C97.816 25.7774 98.8959 26.1314 99.7718 26.8393C100.648 27.5352 101.212 28.513 101.464 29.7729H97.7201C97.5041 29.113 97.0842 28.783 96.4602 28.783C96.0163 28.783 95.6623 28.969 95.3984 29.3409C95.1464 29.7009 95.0204 30.2348 95.0204 30.9427C95.0204 31.6506 95.1464 32.1905 95.3984 32.5625C95.6623 32.9344 96.0163 33.1204 96.4602 33.1204C97.0961 33.1204 97.5161 32.7904 97.7201 32.1305H101.464C101.212 33.3784 100.648 34.3562 99.7718 35.0641C98.8959 35.772 97.816 36.126 96.5322 36.126C95.5364 36.126 94.6485 35.916 93.8686 35.4961C93.1007 35.0761 92.5008 34.4762 92.0688 33.6963C91.6369 32.9164 91.4209 31.9986 91.4209 30.9427ZM106.456 27.6852C106.852 27.1092 107.332 26.6533 107.896 26.3173C108.46 25.9814 109.066 25.8134 109.714 25.8134V29.5749H108.724C107.956 29.5749 107.386 29.7249 107.014 30.0248C106.642 30.3248 106.456 30.8467 106.456 31.5906V36H102.929V25.9034H106.456V27.6852ZM121.309 25.9034V36H117.764V34.5602C117.464 35.0161 117.05 35.3881 116.522 35.676C115.994 35.952 115.388 36.09 114.704 36.09C113.528 36.09 112.598 35.706 111.914 34.9381C111.243 34.1583 110.907 33.1024 110.907 31.7706V25.9034H114.416V31.3206C114.416 31.8966 114.566 32.3525 114.866 32.6885C115.178 33.0124 115.586 33.1744 116.09 33.1744C116.606 33.1744 117.014 33.0124 117.314 32.6885C117.614 32.3525 117.764 31.8966 117.764 31.3206V25.9034H121.309ZM125.098 24.9675C124.475 24.9675 123.971 24.7996 123.587 24.4636C123.215 24.1156 123.029 23.6837 123.029 23.1678C123.029 22.6399 123.215 22.2019 123.587 21.854C123.971 21.506 124.475 21.332 125.098 21.332C125.71 21.332 126.202 21.506 126.574 21.854C126.958 22.2019 127.15 22.6399 127.15 23.1678C127.15 23.6837 126.958 24.1156 126.574 24.4636C126.202 24.7996 125.71 24.9675 125.098 24.9675ZM126.844 25.9034V36H123.317V25.9034H126.844ZM134.81 32.9944V36H133.28C130.701 36 129.411 34.7222 129.411 32.1665V28.837H128.169V25.9034H129.411V23.4557H132.956V25.9034H134.792V28.837H132.956V32.2205C132.956 32.4965 133.016 32.6945 133.136 32.8144C133.268 32.9344 133.484 32.9944 133.784 32.9944H134.81ZM149.62 25.8134C150.892 25.8134 151.888 26.1974 152.608 26.9653C153.34 27.7331 153.706 28.783 153.706 30.1148V36H150.178V30.5828C150.178 30.0428 150.028 29.6229 149.728 29.3229C149.428 29.023 149.02 28.873 148.505 28.873C147.989 28.873 147.581 29.023 147.281 29.3229C146.981 29.6229 146.831 30.0428 146.831 30.5828V36H143.303V30.5828C143.303 30.0428 143.153 29.6229 142.853 29.3229C142.565 29.023 142.163 28.873 141.647 28.873C141.12 28.873 140.706 29.023 140.406 29.3229C140.106 29.6229 139.956 30.0428 139.956 30.5828V36H136.428V25.9034H139.956V27.2352C140.268 26.8033 140.67 26.4613 141.162 26.2094C141.665 25.9454 142.241 25.8134 142.889 25.8134C143.633 25.8134 144.293 25.9754 144.869 26.2993C145.457 26.6233 145.919 27.0792 146.255 27.6672C146.615 27.1152 147.089 26.6713 147.677 26.3353C148.265 25.9874 148.912 25.8134 149.62 25.8134ZM165.285 30.8347C165.285 31.1107 165.267 31.3866 165.231 31.6626H158.554C158.59 32.2145 158.74 32.6285 159.004 32.9044C159.28 33.1684 159.628 33.3004 160.048 33.3004C160.636 33.3004 161.056 33.0364 161.308 32.5085H165.069C164.913 33.2044 164.607 33.8283 164.151 34.3802C163.707 34.9201 163.143 35.3461 162.459 35.658C161.776 35.97 161.02 36.126 160.192 36.126C159.196 36.126 158.308 35.916 157.528 35.4961C156.76 35.0761 156.154 34.4762 155.71 33.6963C155.278 32.9164 155.062 31.9986 155.062 30.9427C155.062 29.8868 155.278 28.975 155.71 28.2071C156.142 27.4272 156.742 26.8273 157.51 26.4073C158.29 25.9874 159.184 25.7774 160.192 25.7774C161.188 25.7774 162.07 25.9814 162.837 26.3893C163.605 26.7973 164.205 27.3852 164.637 28.1531C165.069 28.909 165.285 29.8029 165.285 30.8347ZM161.686 29.9528C161.686 29.5209 161.542 29.1849 161.254 28.945C160.966 28.693 160.606 28.567 160.174 28.567C159.742 28.567 159.388 28.687 159.112 28.927C158.836 29.155 158.656 29.4969 158.572 29.9528H161.686ZM173.334 25.8134C174.498 25.8134 175.421 26.2034 176.105 26.9833C176.789 27.7511 177.131 28.795 177.131 30.1148V36H173.604V30.5828C173.604 30.0068 173.454 29.5569 173.154 29.2329C172.854 28.897 172.452 28.729 171.948 28.729C171.42 28.729 171.006 28.897 170.706 29.2329C170.406 29.5569 170.256 30.0068 170.256 30.5828V36H166.729V25.9034H170.256V27.3432C170.568 26.8873 170.988 26.5213 171.516 26.2454C172.044 25.9574 172.65 25.8134 173.334 25.8134ZM185.024 32.9944V36H183.494C180.915 36 179.625 34.7222 179.625 32.1665V28.837H178.383V25.9034H179.625V23.4557H183.17V25.9034H185.006V28.837H183.17V32.2205C183.17 32.4965 183.23 32.6945 183.35 32.8144C183.482 32.9344 183.698 32.9944 183.998 32.9944H185.024Z" fill="#C31D25"/>
<defs>
<clipPath id="clip0_298_3840">
<rect width="59.3171" height="38" fill="white" transform="translate(0.561035 2)"/>
</clipPath>
</defs>
</svg>
