<svg width="128" height="82" viewBox="0 0 128 82" fill="none" xmlns="http://www.w3.org/2000/svg">
<path d="M55.7464 12.4977V58.9626H41.1769V40.8492H27.3293V58.9626H12.7598V12.4977H27.3293V29.2329H41.1769V12.4977H55.7464Z" fill="white"/>
<path d="M85.6652 58.9626L76.9367 42.293H76.871V58.9626H62.3015V12.4977H83.9589C87.7216 12.4977 90.9374 13.1758 93.6063 14.5322C96.2752 15.8447 98.2659 17.6604 99.5785 19.9793C100.935 22.2544 101.613 24.8358 101.613 27.7235C101.613 30.8299 100.738 33.5863 98.9878 35.9927C97.2815 38.399 94.8095 40.1272 91.5718 41.1773L101.679 58.9626H85.6652ZM76.871 32.58H82.6463C84.0464 32.58 85.0965 32.2737 85.7965 31.6612C86.4965 31.0049 86.8466 29.9986 86.8466 28.6423C86.8466 27.4172 86.4747 26.4547 85.7309 25.7546C85.0308 25.0546 84.0027 24.7046 82.6463 24.7046H76.871V32.58Z" fill="white"/>
<path fill-rule="evenodd" clip-rule="evenodd" d="M62.3017 12.4977V58.9626H76.8712V42.293H76.9368L85.6654 58.9626H101.679L91.5719 41.1773C92.2401 40.9606 92.8757 40.715 93.4786 40.4406C93.607 40.3821 93.7339 40.3224 93.8593 40.2613C94.3982 39.999 94.9097 39.7125 95.394 39.4018C96.0875 38.9569 96.7251 38.4625 97.3067 37.9185C97.9318 37.3338 98.4922 36.6919 98.988 35.9927C100.738 33.5863 101.613 30.8299 101.613 27.7235C101.613 24.8359 100.935 22.2545 99.5786 19.9793C98.2661 17.6605 96.2753 15.8448 93.6064 14.5322C91.1038 13.2604 88.1204 12.5849 84.6561 12.5056C84.4259 12.5003 84.1935 12.4977 83.9591 12.4977H62.3017ZM83.8001 24.803C83.4463 24.7374 83.0618 24.7046 82.6465 24.7046H76.8712V32.58H82.6465C83.8087 32.58 84.7297 32.369 85.4095 31.9469C85.5487 31.8605 85.6777 31.7653 85.7966 31.6612C86.2789 31.2091 86.5951 30.5908 86.7451 29.8065C86.8128 29.4523 86.8467 29.0642 86.8467 28.6423C86.8467 27.4172 86.4748 26.4547 85.731 25.7546C85.2453 25.269 84.6017 24.9518 83.8001 24.803ZM99.1088 3.52542C103.659 5.77846 107.562 9.16476 110.218 13.796C112.763 18.1153 113.918 22.8682 113.918 27.7235C113.918 33.2848 112.303 38.5791 108.982 43.1718C108.591 43.7205 108.182 44.2472 107.757 44.7522L122.825 71.268H0.45459V0.192383H83.9591C89.147 0.192383 94.3458 1.12216 99.1088 3.52542ZM55.7465 12.4977V58.9626H41.177V40.8492H27.3294V58.9626H12.7599V12.4977H27.3294V29.233H41.177V12.4977H55.7465Z" fill="#C31D25"/>
<path d="M116.36 39.319C111.134 42.4615 105.058 46.516 94.8177 56.437L89.4645 52.4234C88.6047 51.7778 87.5472 51.4512 86.4731 51.4994C85.3989 51.5476 84.375 51.9677 83.5764 52.6876L83.5759 52.6881L79.3891 56.4647C79.389 56.4649 79.3888 56.465 79.3887 56.4651C78.9273 56.8812 78.5543 57.3858 78.2917 57.9489C78.0291 58.5121 77.8824 59.1225 77.8603 59.7435C77.8383 60.3646 77.9413 60.9838 78.1633 61.5643C78.3853 62.1448 78.7218 62.6747 79.1526 63.1225L79.153 63.1229L93.0056 77.516C93.0059 77.5163 93.0063 77.5166 93.0066 77.5169C93.0068 77.5171 93.007 77.5173 93.0072 77.5175C95.7238 80.3431 100.255 79.6037 102.099 76.3829L102.099 76.3827C105.715 70.0653 111.144 63.4692 115.796 58.3533C118.254 55.6541 120.795 53.0315 123.416 50.4895L123.877 50.0488L124.016 49.9195L124.18 49.7671L124.213 49.7231C124.904 49.0008 125.345 48.0722 125.466 47.0749C125.598 45.9899 125.342 44.8933 124.743 43.9788L124.742 43.9767L122.628 40.7518C122.628 40.7516 122.627 40.7513 122.627 40.7511C122.627 40.751 122.627 40.7509 122.627 40.7508C121.97 39.7484 120.951 39.0393 119.782 38.7723C118.614 38.5052 117.387 38.7012 116.36 39.319ZM116.36 39.319L117.641 41.4506L116.359 39.3192C116.359 39.3191 116.36 39.3191 116.36 39.319Z" fill="white" stroke="#C31D25" stroke-width="5"/>
</svg>
